<mxfile host="Electron" agent="Mozilla/5.0 (Macintosh; Intel Mac OS X 10_15_7) AppleWebKit/537.36 (KHTML, like Gecko) draw.io/24.7.17 Chrome/128.0.6613.36 Electron/32.0.1 Safari/537.36" version="24.7.17" pages="4">
  <diagram name="Page-1" id="-H_mtQnk-PTXWXPvYvuk">
    <mxGraphModel dx="954" dy="674" grid="1" gridSize="10" guides="1" tooltips="1" connect="1" arrows="1" fold="1" page="1" pageScale="1" pageWidth="1169" pageHeight="827" math="0" shadow="0">
      <root>
        <mxCell id="0" />
        <mxCell id="1" parent="0" />
        <mxCell id="zA23MoTUsTF4_91t8viU-2" value="MongoDB" style="shape=cylinder3;whiteSpace=wrap;html=1;boundedLbl=1;backgroundOutline=1;size=15;" vertex="1" parent="1">
          <mxGeometry x="560" y="280" width="60" height="80" as="geometry" />
        </mxCell>
        <mxCell id="zA23MoTUsTF4_91t8viU-3" value="pymongo-api" style="rounded=1;whiteSpace=wrap;html=1;" vertex="1" parent="1">
          <mxGeometry x="360" y="290" width="120" height="60" as="geometry" />
        </mxCell>
        <mxCell id="zA23MoTUsTF4_91t8viU-4" style="edgeStyle=orthogonalEdgeStyle;rounded=0;orthogonalLoop=1;jettySize=auto;html=1;exitX=1;exitY=0.5;exitDx=0;exitDy=0;entryX=0;entryY=0.5;entryDx=0;entryDy=0;entryPerimeter=0;" edge="1" parent="1" source="zA23MoTUsTF4_91t8viU-3" target="zA23MoTUsTF4_91t8viU-2">
          <mxGeometry relative="1" as="geometry" />
        </mxCell>
      </root>
    </mxGraphModel>
  </diagram>
  <diagram id="7nKVPSyZZ_Nbgq8aDOXQ" name="Task1">
    <mxGraphModel dx="1987" dy="642" grid="1" gridSize="10" guides="1" tooltips="1" connect="1" arrows="1" fold="1" page="1" pageScale="1" pageWidth="850" pageHeight="1100" math="0" shadow="0">
      <root>
        <mxCell id="0" />
        <mxCell id="1" parent="0" />
        <mxCell id="O0Ma_rRskQtZhr7GCLt_-19" value="" style="rounded=0;whiteSpace=wrap;html=1;" vertex="1" parent="1">
          <mxGeometry x="480" y="320" width="360" height="130" as="geometry" />
        </mxCell>
        <mxCell id="O0Ma_rRskQtZhr7GCLt_-18" value="" style="rounded=0;whiteSpace=wrap;html=1;" vertex="1" parent="1">
          <mxGeometry x="480" y="190" width="360" height="130" as="geometry" />
        </mxCell>
        <mxCell id="O0Ma_rRskQtZhr7GCLt_-28" style="edgeStyle=orthogonalEdgeStyle;rounded=0;orthogonalLoop=1;jettySize=auto;html=1;entryX=1;entryY=0.5;entryDx=0;entryDy=0;exitX=0.25;exitY=0;exitDx=0;exitDy=0;" edge="1" parent="1" source="O0Ma_rRskQtZhr7GCLt_-18" target="O0Ma_rRskQtZhr7GCLt_-12">
          <mxGeometry relative="1" as="geometry" />
        </mxCell>
        <mxCell id="O0Ma_rRskQtZhr7GCLt_-1" value="&lt;div&gt;shard1&lt;/div&gt;" style="shape=cylinder3;whiteSpace=wrap;html=1;boundedLbl=1;backgroundOutline=1;size=15;" vertex="1" parent="1">
          <mxGeometry x="505" y="230" width="60" height="80" as="geometry" />
        </mxCell>
        <mxCell id="O0Ma_rRskQtZhr7GCLt_-13" style="edgeStyle=orthogonalEdgeStyle;rounded=0;orthogonalLoop=1;jettySize=auto;html=1;entryX=0.5;entryY=1;entryDx=0;entryDy=0;exitX=0.5;exitY=0;exitDx=0;exitDy=0;" edge="1" parent="1" source="O0Ma_rRskQtZhr7GCLt_-22" target="O0Ma_rRskQtZhr7GCLt_-12">
          <mxGeometry relative="1" as="geometry" />
        </mxCell>
        <mxCell id="O0Ma_rRskQtZhr7GCLt_-44" style="edgeStyle=orthogonalEdgeStyle;rounded=0;orthogonalLoop=1;jettySize=auto;html=1;entryX=1;entryY=0.5;entryDx=0;entryDy=0;" edge="1" parent="1" source="O0Ma_rRskQtZhr7GCLt_-2" target="O0Ma_rRskQtZhr7GCLt_-29">
          <mxGeometry relative="1" as="geometry" />
        </mxCell>
        <mxCell id="O0Ma_rRskQtZhr7GCLt_-2" value="pymongo-api" style="rounded=1;whiteSpace=wrap;html=1;" vertex="1" parent="1">
          <mxGeometry x="120" y="280" width="120" height="100" as="geometry" />
        </mxCell>
        <mxCell id="O0Ma_rRskQtZhr7GCLt_-3" style="edgeStyle=orthogonalEdgeStyle;rounded=0;orthogonalLoop=1;jettySize=auto;html=1;exitX=1;exitY=0.5;exitDx=0;exitDy=0;entryX=0;entryY=0.5;entryDx=0;entryDy=0;" edge="1" parent="1" source="O0Ma_rRskQtZhr7GCLt_-22" target="O0Ma_rRskQtZhr7GCLt_-18">
          <mxGeometry relative="1" as="geometry" />
        </mxCell>
        <mxCell id="O0Ma_rRskQtZhr7GCLt_-4" value="shart1-1" style="shape=cylinder3;whiteSpace=wrap;html=1;boundedLbl=1;backgroundOutline=1;size=15;" vertex="1" parent="1">
          <mxGeometry x="585" y="230" width="60" height="80" as="geometry" />
        </mxCell>
        <mxCell id="O0Ma_rRskQtZhr7GCLt_-5" value="shart1-2" style="shape=cylinder3;whiteSpace=wrap;html=1;boundedLbl=1;backgroundOutline=1;size=15;" vertex="1" parent="1">
          <mxGeometry x="665" y="230" width="60" height="80" as="geometry" />
        </mxCell>
        <mxCell id="O0Ma_rRskQtZhr7GCLt_-8" value="&lt;div&gt;shard2&lt;/div&gt;" style="shape=cylinder3;whiteSpace=wrap;html=1;boundedLbl=1;backgroundOutline=1;size=15;" vertex="1" parent="1">
          <mxGeometry x="505" y="330" width="60" height="80" as="geometry" />
        </mxCell>
        <mxCell id="O0Ma_rRskQtZhr7GCLt_-9" value="shard2-1" style="shape=cylinder3;whiteSpace=wrap;html=1;boundedLbl=1;backgroundOutline=1;size=15;" vertex="1" parent="1">
          <mxGeometry x="585" y="330" width="60" height="80" as="geometry" />
        </mxCell>
        <mxCell id="O0Ma_rRskQtZhr7GCLt_-10" value="shard2-2" style="shape=cylinder3;whiteSpace=wrap;html=1;boundedLbl=1;backgroundOutline=1;size=15;" vertex="1" parent="1">
          <mxGeometry x="665" y="330" width="60" height="80" as="geometry" />
        </mxCell>
        <mxCell id="O0Ma_rRskQtZhr7GCLt_-12" value="" style="rounded=1;whiteSpace=wrap;html=1;" vertex="1" parent="1">
          <mxGeometry x="290" y="30" width="120" height="120" as="geometry" />
        </mxCell>
        <mxCell id="O0Ma_rRskQtZhr7GCLt_-14" style="edgeStyle=orthogonalEdgeStyle;rounded=0;orthogonalLoop=1;jettySize=auto;html=1;entryX=0.5;entryY=0;entryDx=0;entryDy=0;entryPerimeter=0;exitX=0.5;exitY=0;exitDx=0;exitDy=0;exitPerimeter=0;" edge="1" parent="1" source="O0Ma_rRskQtZhr7GCLt_-1" target="O0Ma_rRskQtZhr7GCLt_-4">
          <mxGeometry relative="1" as="geometry" />
        </mxCell>
        <mxCell id="O0Ma_rRskQtZhr7GCLt_-15" style="edgeStyle=orthogonalEdgeStyle;rounded=0;orthogonalLoop=1;jettySize=auto;html=1;entryX=0.5;entryY=0;entryDx=0;entryDy=0;entryPerimeter=0;exitX=0.5;exitY=0;exitDx=0;exitDy=0;exitPerimeter=0;" edge="1" parent="1" source="O0Ma_rRskQtZhr7GCLt_-1" target="O0Ma_rRskQtZhr7GCLt_-5">
          <mxGeometry relative="1" as="geometry" />
        </mxCell>
        <mxCell id="O0Ma_rRskQtZhr7GCLt_-16" style="edgeStyle=orthogonalEdgeStyle;rounded=0;orthogonalLoop=1;jettySize=auto;html=1;entryX=0.5;entryY=1;entryDx=0;entryDy=0;entryPerimeter=0;exitX=0.5;exitY=1;exitDx=0;exitDy=0;exitPerimeter=0;" edge="1" parent="1" source="O0Ma_rRskQtZhr7GCLt_-8" target="O0Ma_rRskQtZhr7GCLt_-9">
          <mxGeometry relative="1" as="geometry" />
        </mxCell>
        <mxCell id="O0Ma_rRskQtZhr7GCLt_-17" style="edgeStyle=orthogonalEdgeStyle;rounded=0;orthogonalLoop=1;jettySize=auto;html=1;entryX=0.5;entryY=1;entryDx=0;entryDy=0;entryPerimeter=0;exitX=0.5;exitY=1;exitDx=0;exitDy=0;exitPerimeter=0;" edge="1" parent="1" source="O0Ma_rRskQtZhr7GCLt_-8" target="O0Ma_rRskQtZhr7GCLt_-10">
          <mxGeometry relative="1" as="geometry" />
        </mxCell>
        <mxCell id="O0Ma_rRskQtZhr7GCLt_-20" value="Driver" style="rounded=1;whiteSpace=wrap;html=1;fillColor=#CCFFFF;" vertex="1" parent="1">
          <mxGeometry x="135" y="345" width="90" height="30" as="geometry" />
        </mxCell>
        <mxCell id="O0Ma_rRskQtZhr7GCLt_-22" value="Router" style="rounded=1;whiteSpace=wrap;html=1;" vertex="1" parent="1">
          <mxGeometry x="290" y="240" width="120" height="30" as="geometry" />
        </mxCell>
        <mxCell id="O0Ma_rRskQtZhr7GCLt_-26" style="edgeStyle=orthogonalEdgeStyle;rounded=0;orthogonalLoop=1;jettySize=auto;html=1;entryX=0;entryY=0.5;entryDx=0;entryDy=0;" edge="1" parent="1" source="O0Ma_rRskQtZhr7GCLt_-22" target="O0Ma_rRskQtZhr7GCLt_-19">
          <mxGeometry relative="1" as="geometry" />
        </mxCell>
        <mxCell id="O0Ma_rRskQtZhr7GCLt_-32" style="edgeStyle=orthogonalEdgeStyle;rounded=0;orthogonalLoop=1;jettySize=auto;html=1;entryX=0;entryY=0.5;entryDx=0;entryDy=0;exitX=0.5;exitY=0;exitDx=0;exitDy=0;" edge="1" parent="1" source="O0Ma_rRskQtZhr7GCLt_-2" target="O0Ma_rRskQtZhr7GCLt_-22">
          <mxGeometry relative="1" as="geometry" />
        </mxCell>
        <mxCell id="O0Ma_rRskQtZhr7GCLt_-29" value="" style="rounded=1;whiteSpace=wrap;html=1;" vertex="1" parent="1">
          <mxGeometry x="-150" y="265" width="200" height="130" as="geometry" />
        </mxCell>
        <mxCell id="O0Ma_rRskQtZhr7GCLt_-45" value="&lt;div&gt;Redis&lt;br&gt;(master)&lt;/div&gt;" style="shape=cylinder3;whiteSpace=wrap;html=1;boundedLbl=1;backgroundOutline=1;size=15;" vertex="1" parent="1">
          <mxGeometry x="-30" y="285" width="60" height="80" as="geometry" />
        </mxCell>
        <mxCell id="O0Ma_rRskQtZhr7GCLt_-46" value="&lt;div&gt;Redis&lt;br&gt;(slave)&lt;/div&gt;" style="shape=cylinder3;whiteSpace=wrap;html=1;boundedLbl=1;backgroundOutline=1;size=15;" vertex="1" parent="1">
          <mxGeometry x="-130" y="285" width="60" height="80" as="geometry" />
        </mxCell>
        <mxCell id="O0Ma_rRskQtZhr7GCLt_-47" style="edgeStyle=orthogonalEdgeStyle;rounded=0;orthogonalLoop=1;jettySize=auto;html=1;entryX=1;entryY=0.5;entryDx=0;entryDy=0;entryPerimeter=0;" edge="1" parent="1" source="O0Ma_rRskQtZhr7GCLt_-45" target="O0Ma_rRskQtZhr7GCLt_-46">
          <mxGeometry relative="1" as="geometry" />
        </mxCell>
        <mxCell id="O0Ma_rRskQtZhr7GCLt_-48" value="confsrv" style="rounded=1;whiteSpace=wrap;html=1;" vertex="1" parent="1">
          <mxGeometry x="300" y="50" width="100" height="20" as="geometry" />
        </mxCell>
        <mxCell id="O0Ma_rRskQtZhr7GCLt_-49" value="confsrv" style="rounded=1;whiteSpace=wrap;html=1;" vertex="1" parent="1">
          <mxGeometry x="300" y="80" width="100" height="20" as="geometry" />
        </mxCell>
        <mxCell id="O0Ma_rRskQtZhr7GCLt_-50" value="confsrv" style="rounded=1;whiteSpace=wrap;html=1;" vertex="1" parent="1">
          <mxGeometry x="300" y="110" width="100" height="20" as="geometry" />
        </mxCell>
        <mxCell id="O0Ma_rRskQtZhr7GCLt_-51" value="application" style="rounded=1;whiteSpace=wrap;html=1;fillColor=#CCFFFF;" vertex="1" parent="1">
          <mxGeometry x="135" y="290" width="90" height="30" as="geometry" />
        </mxCell>
        <mxCell id="O0Ma_rRskQtZhr7GCLt_-52" value="shart1-3" style="shape=cylinder3;whiteSpace=wrap;html=1;boundedLbl=1;backgroundOutline=1;size=15;" vertex="1" parent="1">
          <mxGeometry x="750" y="230" width="60" height="80" as="geometry" />
        </mxCell>
        <mxCell id="O0Ma_rRskQtZhr7GCLt_-53" style="edgeStyle=orthogonalEdgeStyle;rounded=0;orthogonalLoop=1;jettySize=auto;html=1;entryX=0.5;entryY=0;entryDx=0;entryDy=0;entryPerimeter=0;exitX=0.5;exitY=0;exitDx=0;exitDy=0;exitPerimeter=0;" edge="1" parent="1" source="O0Ma_rRskQtZhr7GCLt_-1" target="O0Ma_rRskQtZhr7GCLt_-52">
          <mxGeometry relative="1" as="geometry" />
        </mxCell>
        <mxCell id="O0Ma_rRskQtZhr7GCLt_-55" value="shard2-3" style="shape=cylinder3;whiteSpace=wrap;html=1;boundedLbl=1;backgroundOutline=1;size=15;" vertex="1" parent="1">
          <mxGeometry x="750" y="330" width="60" height="80" as="geometry" />
        </mxCell>
        <mxCell id="O0Ma_rRskQtZhr7GCLt_-56" style="edgeStyle=orthogonalEdgeStyle;rounded=0;orthogonalLoop=1;jettySize=auto;html=1;entryX=0.5;entryY=1;entryDx=0;entryDy=0;entryPerimeter=0;exitX=0.5;exitY=1;exitDx=0;exitDy=0;exitPerimeter=0;" edge="1" parent="1" target="O0Ma_rRskQtZhr7GCLt_-55" source="O0Ma_rRskQtZhr7GCLt_-8">
          <mxGeometry relative="1" as="geometry">
            <mxPoint x="620" y="410" as="sourcePoint" />
          </mxGeometry>
        </mxCell>
      </root>
    </mxGraphModel>
  </diagram>
  <diagram name="Task5" id="4VJkd9hblx9BqsRUlCyB">
    <mxGraphModel dx="1987" dy="642" grid="1" gridSize="10" guides="1" tooltips="1" connect="1" arrows="1" fold="1" page="1" pageScale="1" pageWidth="850" pageHeight="1100" math="0" shadow="0">
      <root>
        <mxCell id="vBlAff_NCyiJXaJQkCHq-0" />
        <mxCell id="vBlAff_NCyiJXaJQkCHq-1" parent="vBlAff_NCyiJXaJQkCHq-0" />
        <mxCell id="vBlAff_NCyiJXaJQkCHq-2" value="" style="rounded=0;whiteSpace=wrap;html=1;" vertex="1" parent="vBlAff_NCyiJXaJQkCHq-1">
          <mxGeometry x="480" y="430" width="360" height="130" as="geometry" />
        </mxCell>
        <mxCell id="vBlAff_NCyiJXaJQkCHq-3" value="" style="rounded=0;whiteSpace=wrap;html=1;" vertex="1" parent="vBlAff_NCyiJXaJQkCHq-1">
          <mxGeometry x="480" y="300" width="360" height="130" as="geometry" />
        </mxCell>
        <mxCell id="vBlAff_NCyiJXaJQkCHq-4" style="edgeStyle=orthogonalEdgeStyle;rounded=0;orthogonalLoop=1;jettySize=auto;html=1;entryX=1;entryY=0.5;entryDx=0;entryDy=0;exitX=0.25;exitY=0;exitDx=0;exitDy=0;" edge="1" parent="vBlAff_NCyiJXaJQkCHq-1" source="vBlAff_NCyiJXaJQkCHq-3" target="vBlAff_NCyiJXaJQkCHq-16">
          <mxGeometry relative="1" as="geometry" />
        </mxCell>
        <mxCell id="vBlAff_NCyiJXaJQkCHq-5" value="&lt;div&gt;shard1&lt;/div&gt;" style="shape=cylinder3;whiteSpace=wrap;html=1;boundedLbl=1;backgroundOutline=1;size=15;" vertex="1" parent="vBlAff_NCyiJXaJQkCHq-1">
          <mxGeometry x="505" y="340" width="60" height="80" as="geometry" />
        </mxCell>
        <mxCell id="vBlAff_NCyiJXaJQkCHq-6" style="edgeStyle=orthogonalEdgeStyle;rounded=0;orthogonalLoop=1;jettySize=auto;html=1;entryX=0.5;entryY=1;entryDx=0;entryDy=0;exitX=0.5;exitY=0;exitDx=0;exitDy=0;" edge="1" parent="vBlAff_NCyiJXaJQkCHq-1" source="vBlAff_NCyiJXaJQkCHq-22" target="vBlAff_NCyiJXaJQkCHq-16">
          <mxGeometry relative="1" as="geometry" />
        </mxCell>
        <mxCell id="vBlAff_NCyiJXaJQkCHq-7" style="edgeStyle=orthogonalEdgeStyle;rounded=0;orthogonalLoop=1;jettySize=auto;html=1;exitX=1;exitY=0.25;exitDx=0;exitDy=0;" edge="1" parent="vBlAff_NCyiJXaJQkCHq-1" source="vBlAff_NCyiJXaJQkCHq-8" target="vBlAff_NCyiJXaJQkCHq-29">
          <mxGeometry relative="1" as="geometry">
            <Array as="points">
              <mxPoint x="250" y="305" />
              <mxPoint x="250" y="217" />
              <mxPoint x="150" y="217" />
            </Array>
          </mxGeometry>
        </mxCell>
        <mxCell id="vBlAff_NCyiJXaJQkCHq-8" value="pymongo-api" style="rounded=1;whiteSpace=wrap;html=1;" vertex="1" parent="vBlAff_NCyiJXaJQkCHq-1">
          <mxGeometry x="90" y="280" width="120" height="100" as="geometry" />
        </mxCell>
        <mxCell id="vBlAff_NCyiJXaJQkCHq-9" style="edgeStyle=orthogonalEdgeStyle;rounded=0;orthogonalLoop=1;jettySize=auto;html=1;exitX=1;exitY=0.5;exitDx=0;exitDy=0;entryX=0;entryY=0.5;entryDx=0;entryDy=0;" edge="1" parent="vBlAff_NCyiJXaJQkCHq-1" source="vBlAff_NCyiJXaJQkCHq-22" target="vBlAff_NCyiJXaJQkCHq-3">
          <mxGeometry relative="1" as="geometry" />
        </mxCell>
        <mxCell id="vBlAff_NCyiJXaJQkCHq-10" value="shart1-1" style="shape=cylinder3;whiteSpace=wrap;html=1;boundedLbl=1;backgroundOutline=1;size=15;" vertex="1" parent="vBlAff_NCyiJXaJQkCHq-1">
          <mxGeometry x="585" y="340" width="60" height="80" as="geometry" />
        </mxCell>
        <mxCell id="vBlAff_NCyiJXaJQkCHq-11" value="shart1-2" style="shape=cylinder3;whiteSpace=wrap;html=1;boundedLbl=1;backgroundOutline=1;size=15;" vertex="1" parent="vBlAff_NCyiJXaJQkCHq-1">
          <mxGeometry x="665" y="340" width="60" height="80" as="geometry" />
        </mxCell>
        <mxCell id="vBlAff_NCyiJXaJQkCHq-12" value="&lt;div&gt;shard2&lt;/div&gt;" style="shape=cylinder3;whiteSpace=wrap;html=1;boundedLbl=1;backgroundOutline=1;size=15;" vertex="1" parent="vBlAff_NCyiJXaJQkCHq-1">
          <mxGeometry x="505" y="440" width="60" height="80" as="geometry" />
        </mxCell>
        <mxCell id="vBlAff_NCyiJXaJQkCHq-13" value="shard2-1" style="shape=cylinder3;whiteSpace=wrap;html=1;boundedLbl=1;backgroundOutline=1;size=15;" vertex="1" parent="vBlAff_NCyiJXaJQkCHq-1">
          <mxGeometry x="585" y="440" width="60" height="80" as="geometry" />
        </mxCell>
        <mxCell id="vBlAff_NCyiJXaJQkCHq-14" value="shard2-2" style="shape=cylinder3;whiteSpace=wrap;html=1;boundedLbl=1;backgroundOutline=1;size=15;" vertex="1" parent="vBlAff_NCyiJXaJQkCHq-1">
          <mxGeometry x="665" y="440" width="60" height="80" as="geometry" />
        </mxCell>
        <mxCell id="vBlAff_NCyiJXaJQkCHq-16" value="" style="rounded=1;whiteSpace=wrap;html=1;" vertex="1" parent="vBlAff_NCyiJXaJQkCHq-1">
          <mxGeometry x="290" y="30" width="120" height="120" as="geometry" />
        </mxCell>
        <mxCell id="vBlAff_NCyiJXaJQkCHq-17" style="edgeStyle=orthogonalEdgeStyle;rounded=0;orthogonalLoop=1;jettySize=auto;html=1;entryX=0.5;entryY=0;entryDx=0;entryDy=0;entryPerimeter=0;exitX=0.5;exitY=0;exitDx=0;exitDy=0;exitPerimeter=0;" edge="1" parent="vBlAff_NCyiJXaJQkCHq-1" source="vBlAff_NCyiJXaJQkCHq-5" target="vBlAff_NCyiJXaJQkCHq-10">
          <mxGeometry relative="1" as="geometry" />
        </mxCell>
        <mxCell id="vBlAff_NCyiJXaJQkCHq-18" style="edgeStyle=orthogonalEdgeStyle;rounded=0;orthogonalLoop=1;jettySize=auto;html=1;entryX=0.5;entryY=0;entryDx=0;entryDy=0;entryPerimeter=0;exitX=0.5;exitY=0;exitDx=0;exitDy=0;exitPerimeter=0;" edge="1" parent="vBlAff_NCyiJXaJQkCHq-1" source="vBlAff_NCyiJXaJQkCHq-5" target="vBlAff_NCyiJXaJQkCHq-11">
          <mxGeometry relative="1" as="geometry" />
        </mxCell>
        <mxCell id="vBlAff_NCyiJXaJQkCHq-19" style="edgeStyle=orthogonalEdgeStyle;rounded=0;orthogonalLoop=1;jettySize=auto;html=1;entryX=0.5;entryY=1;entryDx=0;entryDy=0;entryPerimeter=0;exitX=0.5;exitY=1;exitDx=0;exitDy=0;exitPerimeter=0;" edge="1" parent="vBlAff_NCyiJXaJQkCHq-1" source="vBlAff_NCyiJXaJQkCHq-12" target="vBlAff_NCyiJXaJQkCHq-13">
          <mxGeometry relative="1" as="geometry" />
        </mxCell>
        <mxCell id="vBlAff_NCyiJXaJQkCHq-20" style="edgeStyle=orthogonalEdgeStyle;rounded=0;orthogonalLoop=1;jettySize=auto;html=1;entryX=0.5;entryY=1;entryDx=0;entryDy=0;entryPerimeter=0;exitX=0.5;exitY=1;exitDx=0;exitDy=0;exitPerimeter=0;" edge="1" parent="vBlAff_NCyiJXaJQkCHq-1" source="vBlAff_NCyiJXaJQkCHq-12" target="vBlAff_NCyiJXaJQkCHq-14">
          <mxGeometry relative="1" as="geometry" />
        </mxCell>
        <mxCell id="vBlAff_NCyiJXaJQkCHq-21" value="Driver" style="rounded=1;whiteSpace=wrap;html=1;fillColor=#CCFFFF;" vertex="1" parent="vBlAff_NCyiJXaJQkCHq-1">
          <mxGeometry x="105" y="345" width="90" height="30" as="geometry" />
        </mxCell>
        <mxCell id="vBlAff_NCyiJXaJQkCHq-22" value="Router" style="rounded=1;whiteSpace=wrap;html=1;" vertex="1" parent="vBlAff_NCyiJXaJQkCHq-1">
          <mxGeometry x="290" y="350" width="120" height="30" as="geometry" />
        </mxCell>
        <mxCell id="vBlAff_NCyiJXaJQkCHq-26" style="edgeStyle=orthogonalEdgeStyle;rounded=0;orthogonalLoop=1;jettySize=auto;html=1;entryX=0;entryY=0.5;entryDx=0;entryDy=0;" edge="1" parent="vBlAff_NCyiJXaJQkCHq-1" source="vBlAff_NCyiJXaJQkCHq-22" target="vBlAff_NCyiJXaJQkCHq-2">
          <mxGeometry relative="1" as="geometry" />
        </mxCell>
        <mxCell id="vBlAff_NCyiJXaJQkCHq-28" style="edgeStyle=orthogonalEdgeStyle;rounded=0;orthogonalLoop=1;jettySize=auto;html=1;entryX=0;entryY=0.5;entryDx=0;entryDy=0;exitX=1;exitY=0.25;exitDx=0;exitDy=0;" edge="1" parent="vBlAff_NCyiJXaJQkCHq-1" source="vBlAff_NCyiJXaJQkCHq-8" target="vBlAff_NCyiJXaJQkCHq-22">
          <mxGeometry relative="1" as="geometry" />
        </mxCell>
        <mxCell id="vBlAff_NCyiJXaJQkCHq-29" value="" style="rounded=1;whiteSpace=wrap;html=1;" vertex="1" parent="vBlAff_NCyiJXaJQkCHq-1">
          <mxGeometry x="50" y="25" width="200" height="130" as="geometry" />
        </mxCell>
        <mxCell id="vBlAff_NCyiJXaJQkCHq-30" value="&lt;div&gt;Redis&lt;br&gt;(master)&lt;/div&gt;" style="shape=cylinder3;whiteSpace=wrap;html=1;boundedLbl=1;backgroundOutline=1;size=15;" vertex="1" parent="vBlAff_NCyiJXaJQkCHq-1">
          <mxGeometry x="170" y="45" width="60" height="80" as="geometry" />
        </mxCell>
        <mxCell id="vBlAff_NCyiJXaJQkCHq-31" value="&lt;div&gt;Redis&lt;br&gt;(slave)&lt;/div&gt;" style="shape=cylinder3;whiteSpace=wrap;html=1;boundedLbl=1;backgroundOutline=1;size=15;" vertex="1" parent="vBlAff_NCyiJXaJQkCHq-1">
          <mxGeometry x="70" y="45" width="60" height="80" as="geometry" />
        </mxCell>
        <mxCell id="vBlAff_NCyiJXaJQkCHq-32" style="edgeStyle=orthogonalEdgeStyle;rounded=0;orthogonalLoop=1;jettySize=auto;html=1;entryX=1;entryY=0.5;entryDx=0;entryDy=0;entryPerimeter=0;" edge="1" parent="vBlAff_NCyiJXaJQkCHq-1" source="vBlAff_NCyiJXaJQkCHq-30" target="vBlAff_NCyiJXaJQkCHq-31">
          <mxGeometry relative="1" as="geometry" />
        </mxCell>
        <mxCell id="vBlAff_NCyiJXaJQkCHq-33" value="confsrv" style="rounded=1;whiteSpace=wrap;html=1;" vertex="1" parent="vBlAff_NCyiJXaJQkCHq-1">
          <mxGeometry x="300" y="50" width="100" height="20" as="geometry" />
        </mxCell>
        <mxCell id="vBlAff_NCyiJXaJQkCHq-34" value="confsrv" style="rounded=1;whiteSpace=wrap;html=1;" vertex="1" parent="vBlAff_NCyiJXaJQkCHq-1">
          <mxGeometry x="300" y="80" width="100" height="20" as="geometry" />
        </mxCell>
        <mxCell id="vBlAff_NCyiJXaJQkCHq-35" value="confsrv" style="rounded=1;whiteSpace=wrap;html=1;" vertex="1" parent="vBlAff_NCyiJXaJQkCHq-1">
          <mxGeometry x="300" y="110" width="100" height="20" as="geometry" />
        </mxCell>
        <mxCell id="vBlAff_NCyiJXaJQkCHq-36" value="application" style="rounded=1;whiteSpace=wrap;html=1;fillColor=#CCFFFF;" vertex="1" parent="vBlAff_NCyiJXaJQkCHq-1">
          <mxGeometry x="105" y="290" width="90" height="30" as="geometry" />
        </mxCell>
        <mxCell id="vBlAff_NCyiJXaJQkCHq-37" value="shart1-3" style="shape=cylinder3;whiteSpace=wrap;html=1;boundedLbl=1;backgroundOutline=1;size=15;" vertex="1" parent="vBlAff_NCyiJXaJQkCHq-1">
          <mxGeometry x="750" y="340" width="60" height="80" as="geometry" />
        </mxCell>
        <mxCell id="vBlAff_NCyiJXaJQkCHq-38" style="edgeStyle=orthogonalEdgeStyle;rounded=0;orthogonalLoop=1;jettySize=auto;html=1;entryX=0.5;entryY=0;entryDx=0;entryDy=0;entryPerimeter=0;exitX=0.5;exitY=0;exitDx=0;exitDy=0;exitPerimeter=0;" edge="1" parent="vBlAff_NCyiJXaJQkCHq-1" source="vBlAff_NCyiJXaJQkCHq-5" target="vBlAff_NCyiJXaJQkCHq-37">
          <mxGeometry relative="1" as="geometry" />
        </mxCell>
        <mxCell id="vBlAff_NCyiJXaJQkCHq-39" value="shard2-3" style="shape=cylinder3;whiteSpace=wrap;html=1;boundedLbl=1;backgroundOutline=1;size=15;" vertex="1" parent="vBlAff_NCyiJXaJQkCHq-1">
          <mxGeometry x="750" y="440" width="60" height="80" as="geometry" />
        </mxCell>
        <mxCell id="vBlAff_NCyiJXaJQkCHq-40" style="edgeStyle=orthogonalEdgeStyle;rounded=0;orthogonalLoop=1;jettySize=auto;html=1;entryX=0.5;entryY=1;entryDx=0;entryDy=0;entryPerimeter=0;exitX=0.5;exitY=1;exitDx=0;exitDy=0;exitPerimeter=0;" edge="1" parent="vBlAff_NCyiJXaJQkCHq-1" source="vBlAff_NCyiJXaJQkCHq-12" target="vBlAff_NCyiJXaJQkCHq-39">
          <mxGeometry relative="1" as="geometry">
            <mxPoint x="620" y="520" as="sourcePoint" />
          </mxGeometry>
        </mxCell>
        <mxCell id="3sKeC-kTaaG00xlKNHyP-12" style="edgeStyle=orthogonalEdgeStyle;rounded=0;orthogonalLoop=1;jettySize=auto;html=1;" edge="1" parent="vBlAff_NCyiJXaJQkCHq-1" source="3sKeC-kTaaG00xlKNHyP-0" target="3sKeC-kTaaG00xlKNHyP-11">
          <mxGeometry relative="1" as="geometry" />
        </mxCell>
        <mxCell id="3sKeC-kTaaG00xlKNHyP-0" value="User" style="shape=umlActor;verticalLabelPosition=bottom;verticalAlign=top;html=1;outlineConnect=0;" vertex="1" parent="vBlAff_NCyiJXaJQkCHq-1">
          <mxGeometry x="-260" y="420" width="30" height="60" as="geometry" />
        </mxCell>
        <mxCell id="3sKeC-kTaaG00xlKNHyP-7" style="edgeStyle=orthogonalEdgeStyle;rounded=0;orthogonalLoop=1;jettySize=auto;html=1;exitX=1;exitY=0.25;exitDx=0;exitDy=0;entryX=0;entryY=0.5;entryDx=0;entryDy=0;" edge="1" parent="vBlAff_NCyiJXaJQkCHq-1" source="3sKeC-kTaaG00xlKNHyP-1" target="vBlAff_NCyiJXaJQkCHq-22">
          <mxGeometry relative="1" as="geometry" />
        </mxCell>
        <mxCell id="3sKeC-kTaaG00xlKNHyP-1" value="pymongo-api" style="rounded=1;whiteSpace=wrap;html=1;" vertex="1" parent="vBlAff_NCyiJXaJQkCHq-1">
          <mxGeometry x="90" y="400" width="120" height="100" as="geometry" />
        </mxCell>
        <mxCell id="3sKeC-kTaaG00xlKNHyP-2" value="Driver" style="rounded=1;whiteSpace=wrap;html=1;fillColor=#CCFFFF;" vertex="1" parent="vBlAff_NCyiJXaJQkCHq-1">
          <mxGeometry x="105" y="465" width="90" height="30" as="geometry" />
        </mxCell>
        <mxCell id="3sKeC-kTaaG00xlKNHyP-3" value="application" style="rounded=1;whiteSpace=wrap;html=1;fillColor=#CCFFFF;" vertex="1" parent="vBlAff_NCyiJXaJQkCHq-1">
          <mxGeometry x="105" y="410" width="90" height="30" as="geometry" />
        </mxCell>
        <mxCell id="3sKeC-kTaaG00xlKNHyP-9" style="edgeStyle=orthogonalEdgeStyle;rounded=0;orthogonalLoop=1;jettySize=auto;html=1;exitX=1;exitY=0.5;exitDx=0;exitDy=0;entryX=0;entryY=0.5;entryDx=0;entryDy=0;" edge="1" parent="vBlAff_NCyiJXaJQkCHq-1" source="3sKeC-kTaaG00xlKNHyP-4" target="vBlAff_NCyiJXaJQkCHq-22">
          <mxGeometry relative="1" as="geometry" />
        </mxCell>
        <mxCell id="3sKeC-kTaaG00xlKNHyP-22" style="edgeStyle=orthogonalEdgeStyle;rounded=0;orthogonalLoop=1;jettySize=auto;html=1;entryX=0.5;entryY=1;entryDx=0;entryDy=0;exitX=1;exitY=0.5;exitDx=0;exitDy=0;" edge="1" parent="vBlAff_NCyiJXaJQkCHq-1" source="3sKeC-kTaaG00xlKNHyP-4" target="3sKeC-kTaaG00xlKNHyP-18">
          <mxGeometry relative="1" as="geometry">
            <Array as="points">
              <mxPoint x="250" y="570" />
              <mxPoint x="250" y="640" />
              <mxPoint x="-70" y="640" />
            </Array>
          </mxGeometry>
        </mxCell>
        <mxCell id="3sKeC-kTaaG00xlKNHyP-4" value="pymongo-api" style="rounded=1;whiteSpace=wrap;html=1;" vertex="1" parent="vBlAff_NCyiJXaJQkCHq-1">
          <mxGeometry x="90" y="520" width="120" height="100" as="geometry" />
        </mxCell>
        <mxCell id="3sKeC-kTaaG00xlKNHyP-5" value="Driver" style="rounded=1;whiteSpace=wrap;html=1;fillColor=#CCFFFF;" vertex="1" parent="vBlAff_NCyiJXaJQkCHq-1">
          <mxGeometry x="105" y="585" width="90" height="30" as="geometry" />
        </mxCell>
        <mxCell id="3sKeC-kTaaG00xlKNHyP-6" value="application" style="rounded=1;whiteSpace=wrap;html=1;fillColor=#CCFFFF;" vertex="1" parent="vBlAff_NCyiJXaJQkCHq-1">
          <mxGeometry x="105" y="530" width="90" height="30" as="geometry" />
        </mxCell>
        <mxCell id="3sKeC-kTaaG00xlKNHyP-13" style="edgeStyle=orthogonalEdgeStyle;rounded=0;orthogonalLoop=1;jettySize=auto;html=1;entryX=0;entryY=0.5;entryDx=0;entryDy=0;" edge="1" parent="vBlAff_NCyiJXaJQkCHq-1" source="3sKeC-kTaaG00xlKNHyP-11" target="vBlAff_NCyiJXaJQkCHq-8">
          <mxGeometry relative="1" as="geometry" />
        </mxCell>
        <mxCell id="3sKeC-kTaaG00xlKNHyP-14" style="edgeStyle=orthogonalEdgeStyle;rounded=0;orthogonalLoop=1;jettySize=auto;html=1;entryX=0;entryY=0.5;entryDx=0;entryDy=0;" edge="1" parent="vBlAff_NCyiJXaJQkCHq-1" source="3sKeC-kTaaG00xlKNHyP-11" target="3sKeC-kTaaG00xlKNHyP-1">
          <mxGeometry relative="1" as="geometry" />
        </mxCell>
        <mxCell id="3sKeC-kTaaG00xlKNHyP-15" style="edgeStyle=orthogonalEdgeStyle;rounded=0;orthogonalLoop=1;jettySize=auto;html=1;entryX=0;entryY=0.5;entryDx=0;entryDy=0;" edge="1" parent="vBlAff_NCyiJXaJQkCHq-1" source="3sKeC-kTaaG00xlKNHyP-11" target="3sKeC-kTaaG00xlKNHyP-4">
          <mxGeometry relative="1" as="geometry" />
        </mxCell>
        <mxCell id="3sKeC-kTaaG00xlKNHyP-16" style="edgeStyle=orthogonalEdgeStyle;rounded=0;orthogonalLoop=1;jettySize=auto;html=1;entryX=0;entryY=0.5;entryDx=0;entryDy=0;" edge="1" parent="vBlAff_NCyiJXaJQkCHq-1" source="3sKeC-kTaaG00xlKNHyP-11" target="vBlAff_NCyiJXaJQkCHq-29">
          <mxGeometry relative="1" as="geometry" />
        </mxCell>
        <mxCell id="3sKeC-kTaaG00xlKNHyP-11" value="APISIX Gateway" style="rounded=1;whiteSpace=wrap;html=1;" vertex="1" parent="vBlAff_NCyiJXaJQkCHq-1">
          <mxGeometry x="-120" y="400" width="120" height="100" as="geometry" />
        </mxCell>
        <mxCell id="3sKeC-kTaaG00xlKNHyP-19" style="edgeStyle=orthogonalEdgeStyle;rounded=0;orthogonalLoop=1;jettySize=auto;html=1;entryX=0.5;entryY=0;entryDx=0;entryDy=0;" edge="1" parent="vBlAff_NCyiJXaJQkCHq-1" source="3sKeC-kTaaG00xlKNHyP-17" target="3sKeC-kTaaG00xlKNHyP-18">
          <mxGeometry relative="1" as="geometry" />
        </mxCell>
        <mxCell id="3sKeC-kTaaG00xlKNHyP-17" value="consul_kv" style="rounded=1;whiteSpace=wrap;html=1;fillColor=#CCFFFF;" vertex="1" parent="vBlAff_NCyiJXaJQkCHq-1">
          <mxGeometry x="-105" y="465" width="90" height="30" as="geometry" />
        </mxCell>
        <mxCell id="3sKeC-kTaaG00xlKNHyP-18" value="Consul" style="rounded=1;whiteSpace=wrap;html=1;" vertex="1" parent="vBlAff_NCyiJXaJQkCHq-1">
          <mxGeometry x="-130" y="580" width="120" height="40" as="geometry" />
        </mxCell>
        <mxCell id="3sKeC-kTaaG00xlKNHyP-21" value="Получить список сервисов" style="text;strokeColor=none;align=center;fillColor=#FFFFFF;html=1;verticalAlign=middle;whiteSpace=wrap;rounded=0;" vertex="1" parent="vBlAff_NCyiJXaJQkCHq-1">
          <mxGeometry x="-112.5" y="520" width="105" height="30" as="geometry" />
        </mxCell>
        <mxCell id="3sKeC-kTaaG00xlKNHyP-23" value="Регистрация" style="text;strokeColor=none;align=center;fillColor=#FFFFFF;html=1;verticalAlign=middle;whiteSpace=wrap;rounded=0;" vertex="1" parent="vBlAff_NCyiJXaJQkCHq-1">
          <mxGeometry x="-35" y="630" width="105" height="30" as="geometry" />
        </mxCell>
      </root>
    </mxGraphModel>
  </diagram>
  <diagram name="Task6" id="cgBwc-JyDjc15IgsUxsu">
    <mxGraphModel dx="2612" dy="899" grid="1" gridSize="10" guides="1" tooltips="1" connect="1" arrows="1" fold="1" page="1" pageScale="1" pageWidth="850" pageHeight="1100" math="0" shadow="0">
      <root>
        <mxCell id="_TAWZ5lWANfYN2PFnZLe-0" />
        <mxCell id="_TAWZ5lWANfYN2PFnZLe-1" parent="_TAWZ5lWANfYN2PFnZLe-0" />
        <mxCell id="_TAWZ5lWANfYN2PFnZLe-2" value="" style="rounded=0;whiteSpace=wrap;html=1;" vertex="1" parent="_TAWZ5lWANfYN2PFnZLe-1">
          <mxGeometry x="480" y="430" width="360" height="130" as="geometry" />
        </mxCell>
        <mxCell id="_TAWZ5lWANfYN2PFnZLe-3" value="" style="rounded=0;whiteSpace=wrap;html=1;" vertex="1" parent="_TAWZ5lWANfYN2PFnZLe-1">
          <mxGeometry x="480" y="300" width="360" height="130" as="geometry" />
        </mxCell>
        <mxCell id="_TAWZ5lWANfYN2PFnZLe-4" style="edgeStyle=orthogonalEdgeStyle;rounded=0;orthogonalLoop=1;jettySize=auto;html=1;entryX=1;entryY=0.5;entryDx=0;entryDy=0;exitX=0.25;exitY=0;exitDx=0;exitDy=0;" edge="1" parent="_TAWZ5lWANfYN2PFnZLe-1" source="_TAWZ5lWANfYN2PFnZLe-3" target="_TAWZ5lWANfYN2PFnZLe-16">
          <mxGeometry relative="1" as="geometry" />
        </mxCell>
        <mxCell id="_TAWZ5lWANfYN2PFnZLe-5" value="&lt;div&gt;shard1&lt;/div&gt;" style="shape=cylinder3;whiteSpace=wrap;html=1;boundedLbl=1;backgroundOutline=1;size=15;" vertex="1" parent="_TAWZ5lWANfYN2PFnZLe-1">
          <mxGeometry x="505" y="340" width="60" height="80" as="geometry" />
        </mxCell>
        <mxCell id="_TAWZ5lWANfYN2PFnZLe-6" style="edgeStyle=orthogonalEdgeStyle;rounded=0;orthogonalLoop=1;jettySize=auto;html=1;entryX=0.5;entryY=1;entryDx=0;entryDy=0;exitX=0.5;exitY=0;exitDx=0;exitDy=0;" edge="1" parent="_TAWZ5lWANfYN2PFnZLe-1" target="_TAWZ5lWANfYN2PFnZLe-16">
          <mxGeometry relative="1" as="geometry">
            <mxPoint x="350" y="350" as="sourcePoint" />
          </mxGeometry>
        </mxCell>
        <mxCell id="_TAWZ5lWANfYN2PFnZLe-7" style="edgeStyle=orthogonalEdgeStyle;rounded=0;orthogonalLoop=1;jettySize=auto;html=1;exitX=1;exitY=0.25;exitDx=0;exitDy=0;" edge="1" parent="_TAWZ5lWANfYN2PFnZLe-1" source="_TAWZ5lWANfYN2PFnZLe-8" target="_TAWZ5lWANfYN2PFnZLe-29">
          <mxGeometry relative="1" as="geometry">
            <Array as="points">
              <mxPoint x="250" y="305" />
              <mxPoint x="250" y="220" />
              <mxPoint x="150" y="220" />
            </Array>
          </mxGeometry>
        </mxCell>
        <mxCell id="_TAWZ5lWANfYN2PFnZLe-8" value="pymongo-api" style="rounded=1;whiteSpace=wrap;html=1;" vertex="1" parent="_TAWZ5lWANfYN2PFnZLe-1">
          <mxGeometry x="90" y="280" width="120" height="100" as="geometry" />
        </mxCell>
        <mxCell id="_TAWZ5lWANfYN2PFnZLe-9" style="edgeStyle=orthogonalEdgeStyle;rounded=0;orthogonalLoop=1;jettySize=auto;html=1;exitX=1;exitY=0.5;exitDx=0;exitDy=0;entryX=0;entryY=0.5;entryDx=0;entryDy=0;" edge="1" parent="_TAWZ5lWANfYN2PFnZLe-1" target="_TAWZ5lWANfYN2PFnZLe-3">
          <mxGeometry relative="1" as="geometry">
            <mxPoint x="410" y="365" as="sourcePoint" />
          </mxGeometry>
        </mxCell>
        <mxCell id="_TAWZ5lWANfYN2PFnZLe-10" value="shart1-1" style="shape=cylinder3;whiteSpace=wrap;html=1;boundedLbl=1;backgroundOutline=1;size=15;" vertex="1" parent="_TAWZ5lWANfYN2PFnZLe-1">
          <mxGeometry x="585" y="340" width="60" height="80" as="geometry" />
        </mxCell>
        <mxCell id="_TAWZ5lWANfYN2PFnZLe-11" value="shart1-2" style="shape=cylinder3;whiteSpace=wrap;html=1;boundedLbl=1;backgroundOutline=1;size=15;" vertex="1" parent="_TAWZ5lWANfYN2PFnZLe-1">
          <mxGeometry x="665" y="340" width="60" height="80" as="geometry" />
        </mxCell>
        <mxCell id="_TAWZ5lWANfYN2PFnZLe-12" value="&lt;div&gt;shard2&lt;/div&gt;" style="shape=cylinder3;whiteSpace=wrap;html=1;boundedLbl=1;backgroundOutline=1;size=15;" vertex="1" parent="_TAWZ5lWANfYN2PFnZLe-1">
          <mxGeometry x="505" y="440" width="60" height="80" as="geometry" />
        </mxCell>
        <mxCell id="_TAWZ5lWANfYN2PFnZLe-13" value="shard2-1" style="shape=cylinder3;whiteSpace=wrap;html=1;boundedLbl=1;backgroundOutline=1;size=15;" vertex="1" parent="_TAWZ5lWANfYN2PFnZLe-1">
          <mxGeometry x="585" y="440" width="60" height="80" as="geometry" />
        </mxCell>
        <mxCell id="_TAWZ5lWANfYN2PFnZLe-14" value="shard2-2" style="shape=cylinder3;whiteSpace=wrap;html=1;boundedLbl=1;backgroundOutline=1;size=15;" vertex="1" parent="_TAWZ5lWANfYN2PFnZLe-1">
          <mxGeometry x="665" y="440" width="60" height="80" as="geometry" />
        </mxCell>
        <mxCell id="_TAWZ5lWANfYN2PFnZLe-15" style="edgeStyle=orthogonalEdgeStyle;rounded=0;orthogonalLoop=1;jettySize=auto;html=1;entryX=0;entryY=0.5;entryDx=0;entryDy=0;" edge="1" parent="_TAWZ5lWANfYN2PFnZLe-1" source="_TAWZ5lWANfYN2PFnZLe-24" target="_TAWZ5lWANfYN2PFnZLe-2">
          <mxGeometry relative="1" as="geometry" />
        </mxCell>
        <mxCell id="_TAWZ5lWANfYN2PFnZLe-16" value="" style="rounded=1;whiteSpace=wrap;html=1;" vertex="1" parent="_TAWZ5lWANfYN2PFnZLe-1">
          <mxGeometry x="290" y="30" width="120" height="120" as="geometry" />
        </mxCell>
        <mxCell id="_TAWZ5lWANfYN2PFnZLe-17" style="edgeStyle=orthogonalEdgeStyle;rounded=0;orthogonalLoop=1;jettySize=auto;html=1;entryX=0.5;entryY=0;entryDx=0;entryDy=0;entryPerimeter=0;exitX=0.5;exitY=0;exitDx=0;exitDy=0;exitPerimeter=0;" edge="1" parent="_TAWZ5lWANfYN2PFnZLe-1" source="_TAWZ5lWANfYN2PFnZLe-5" target="_TAWZ5lWANfYN2PFnZLe-10">
          <mxGeometry relative="1" as="geometry" />
        </mxCell>
        <mxCell id="_TAWZ5lWANfYN2PFnZLe-18" style="edgeStyle=orthogonalEdgeStyle;rounded=0;orthogonalLoop=1;jettySize=auto;html=1;entryX=0.5;entryY=0;entryDx=0;entryDy=0;entryPerimeter=0;exitX=0.5;exitY=0;exitDx=0;exitDy=0;exitPerimeter=0;" edge="1" parent="_TAWZ5lWANfYN2PFnZLe-1" source="_TAWZ5lWANfYN2PFnZLe-5" target="_TAWZ5lWANfYN2PFnZLe-11">
          <mxGeometry relative="1" as="geometry" />
        </mxCell>
        <mxCell id="_TAWZ5lWANfYN2PFnZLe-19" style="edgeStyle=orthogonalEdgeStyle;rounded=0;orthogonalLoop=1;jettySize=auto;html=1;entryX=0.5;entryY=1;entryDx=0;entryDy=0;entryPerimeter=0;exitX=0.5;exitY=1;exitDx=0;exitDy=0;exitPerimeter=0;" edge="1" parent="_TAWZ5lWANfYN2PFnZLe-1" source="_TAWZ5lWANfYN2PFnZLe-12" target="_TAWZ5lWANfYN2PFnZLe-13">
          <mxGeometry relative="1" as="geometry" />
        </mxCell>
        <mxCell id="_TAWZ5lWANfYN2PFnZLe-20" style="edgeStyle=orthogonalEdgeStyle;rounded=0;orthogonalLoop=1;jettySize=auto;html=1;entryX=0.5;entryY=1;entryDx=0;entryDy=0;entryPerimeter=0;exitX=0.5;exitY=1;exitDx=0;exitDy=0;exitPerimeter=0;" edge="1" parent="_TAWZ5lWANfYN2PFnZLe-1" source="_TAWZ5lWANfYN2PFnZLe-12" target="_TAWZ5lWANfYN2PFnZLe-14">
          <mxGeometry relative="1" as="geometry" />
        </mxCell>
        <mxCell id="_TAWZ5lWANfYN2PFnZLe-21" value="Driver" style="rounded=1;whiteSpace=wrap;html=1;fillColor=#CCFFFF;" vertex="1" parent="_TAWZ5lWANfYN2PFnZLe-1">
          <mxGeometry x="105" y="345" width="90" height="30" as="geometry" />
        </mxCell>
        <mxCell id="_TAWZ5lWANfYN2PFnZLe-23" value="" style="edgeStyle=orthogonalEdgeStyle;rounded=0;orthogonalLoop=1;jettySize=auto;html=1;entryX=0;entryY=0.5;entryDx=0;entryDy=0;exitX=1;exitY=0.75;exitDx=0;exitDy=0;" edge="1" parent="_TAWZ5lWANfYN2PFnZLe-1" source="_TAWZ5lWANfYN2PFnZLe-8" target="_TAWZ5lWANfYN2PFnZLe-24">
          <mxGeometry relative="1" as="geometry">
            <mxPoint x="230" y="320" as="sourcePoint" />
            <mxPoint x="505" y="383" as="targetPoint" />
          </mxGeometry>
        </mxCell>
        <mxCell id="_TAWZ5lWANfYN2PFnZLe-24" value="Router" style="rounded=1;whiteSpace=wrap;html=1;" vertex="1" parent="_TAWZ5lWANfYN2PFnZLe-1">
          <mxGeometry x="290" y="350" width="120" height="30" as="geometry" />
        </mxCell>
        <mxCell id="_TAWZ5lWANfYN2PFnZLe-26" style="edgeStyle=orthogonalEdgeStyle;rounded=0;orthogonalLoop=1;jettySize=auto;html=1;entryX=0;entryY=0.5;entryDx=0;entryDy=0;" edge="1" parent="_TAWZ5lWANfYN2PFnZLe-1" target="_TAWZ5lWANfYN2PFnZLe-2">
          <mxGeometry relative="1" as="geometry">
            <mxPoint x="410" y="365" as="sourcePoint" />
          </mxGeometry>
        </mxCell>
        <mxCell id="_TAWZ5lWANfYN2PFnZLe-27" style="edgeStyle=orthogonalEdgeStyle;rounded=0;orthogonalLoop=1;jettySize=auto;html=1;entryX=0;entryY=0.5;entryDx=0;entryDy=0;" edge="1" parent="_TAWZ5lWANfYN2PFnZLe-1" source="_TAWZ5lWANfYN2PFnZLe-24" target="_TAWZ5lWANfYN2PFnZLe-3">
          <mxGeometry relative="1" as="geometry" />
        </mxCell>
        <mxCell id="_TAWZ5lWANfYN2PFnZLe-29" value="" style="rounded=1;whiteSpace=wrap;html=1;" vertex="1" parent="_TAWZ5lWANfYN2PFnZLe-1">
          <mxGeometry x="50" y="25" width="200" height="130" as="geometry" />
        </mxCell>
        <mxCell id="_TAWZ5lWANfYN2PFnZLe-30" value="&lt;div&gt;Redis&lt;br&gt;(master)&lt;/div&gt;" style="shape=cylinder3;whiteSpace=wrap;html=1;boundedLbl=1;backgroundOutline=1;size=15;" vertex="1" parent="_TAWZ5lWANfYN2PFnZLe-1">
          <mxGeometry x="170" y="45" width="60" height="80" as="geometry" />
        </mxCell>
        <mxCell id="_TAWZ5lWANfYN2PFnZLe-31" value="&lt;div&gt;Redis&lt;br&gt;(slave)&lt;/div&gt;" style="shape=cylinder3;whiteSpace=wrap;html=1;boundedLbl=1;backgroundOutline=1;size=15;" vertex="1" parent="_TAWZ5lWANfYN2PFnZLe-1">
          <mxGeometry x="70" y="45" width="60" height="80" as="geometry" />
        </mxCell>
        <mxCell id="_TAWZ5lWANfYN2PFnZLe-32" style="edgeStyle=orthogonalEdgeStyle;rounded=0;orthogonalLoop=1;jettySize=auto;html=1;entryX=1;entryY=0.5;entryDx=0;entryDy=0;entryPerimeter=0;" edge="1" parent="_TAWZ5lWANfYN2PFnZLe-1" source="_TAWZ5lWANfYN2PFnZLe-30" target="_TAWZ5lWANfYN2PFnZLe-31">
          <mxGeometry relative="1" as="geometry" />
        </mxCell>
        <mxCell id="_TAWZ5lWANfYN2PFnZLe-33" value="confsrv" style="rounded=1;whiteSpace=wrap;html=1;" vertex="1" parent="_TAWZ5lWANfYN2PFnZLe-1">
          <mxGeometry x="300" y="50" width="100" height="20" as="geometry" />
        </mxCell>
        <mxCell id="_TAWZ5lWANfYN2PFnZLe-34" value="confsrv" style="rounded=1;whiteSpace=wrap;html=1;" vertex="1" parent="_TAWZ5lWANfYN2PFnZLe-1">
          <mxGeometry x="300" y="80" width="100" height="20" as="geometry" />
        </mxCell>
        <mxCell id="_TAWZ5lWANfYN2PFnZLe-35" value="confsrv" style="rounded=1;whiteSpace=wrap;html=1;" vertex="1" parent="_TAWZ5lWANfYN2PFnZLe-1">
          <mxGeometry x="300" y="110" width="100" height="20" as="geometry" />
        </mxCell>
        <mxCell id="_TAWZ5lWANfYN2PFnZLe-36" value="application" style="rounded=1;whiteSpace=wrap;html=1;fillColor=#CCFFFF;" vertex="1" parent="_TAWZ5lWANfYN2PFnZLe-1">
          <mxGeometry x="105" y="290" width="90" height="30" as="geometry" />
        </mxCell>
        <mxCell id="_TAWZ5lWANfYN2PFnZLe-37" value="shart1-3" style="shape=cylinder3;whiteSpace=wrap;html=1;boundedLbl=1;backgroundOutline=1;size=15;" vertex="1" parent="_TAWZ5lWANfYN2PFnZLe-1">
          <mxGeometry x="750" y="340" width="60" height="80" as="geometry" />
        </mxCell>
        <mxCell id="_TAWZ5lWANfYN2PFnZLe-38" style="edgeStyle=orthogonalEdgeStyle;rounded=0;orthogonalLoop=1;jettySize=auto;html=1;entryX=0.5;entryY=0;entryDx=0;entryDy=0;entryPerimeter=0;exitX=0.5;exitY=0;exitDx=0;exitDy=0;exitPerimeter=0;" edge="1" parent="_TAWZ5lWANfYN2PFnZLe-1" source="_TAWZ5lWANfYN2PFnZLe-5" target="_TAWZ5lWANfYN2PFnZLe-37">
          <mxGeometry relative="1" as="geometry" />
        </mxCell>
        <mxCell id="_TAWZ5lWANfYN2PFnZLe-39" value="shard2-3" style="shape=cylinder3;whiteSpace=wrap;html=1;boundedLbl=1;backgroundOutline=1;size=15;" vertex="1" parent="_TAWZ5lWANfYN2PFnZLe-1">
          <mxGeometry x="750" y="440" width="60" height="80" as="geometry" />
        </mxCell>
        <mxCell id="_TAWZ5lWANfYN2PFnZLe-40" style="edgeStyle=orthogonalEdgeStyle;rounded=0;orthogonalLoop=1;jettySize=auto;html=1;entryX=0.5;entryY=1;entryDx=0;entryDy=0;entryPerimeter=0;exitX=0.5;exitY=1;exitDx=0;exitDy=0;exitPerimeter=0;" edge="1" parent="_TAWZ5lWANfYN2PFnZLe-1" source="_TAWZ5lWANfYN2PFnZLe-12" target="_TAWZ5lWANfYN2PFnZLe-39">
          <mxGeometry relative="1" as="geometry">
            <mxPoint x="620" y="520" as="sourcePoint" />
          </mxGeometry>
        </mxCell>
        <mxCell id="_TAWZ5lWANfYN2PFnZLe-42" value="User" style="shape=umlActor;verticalLabelPosition=bottom;verticalAlign=top;html=1;outlineConnect=0;" vertex="1" parent="_TAWZ5lWANfYN2PFnZLe-1">
          <mxGeometry x="-380" y="416" width="30" height="60" as="geometry" />
        </mxCell>
        <mxCell id="_TAWZ5lWANfYN2PFnZLe-44" style="edgeStyle=orthogonalEdgeStyle;rounded=0;orthogonalLoop=1;jettySize=auto;html=1;entryX=0;entryY=0.5;entryDx=0;entryDy=0;" edge="1" parent="_TAWZ5lWANfYN2PFnZLe-1" source="_TAWZ5lWANfYN2PFnZLe-45" target="_TAWZ5lWANfYN2PFnZLe-24">
          <mxGeometry relative="1" as="geometry" />
        </mxCell>
        <mxCell id="_TAWZ5lWANfYN2PFnZLe-45" value="pymongo-api" style="rounded=1;whiteSpace=wrap;html=1;" vertex="1" parent="_TAWZ5lWANfYN2PFnZLe-1">
          <mxGeometry x="90" y="400" width="120" height="100" as="geometry" />
        </mxCell>
        <mxCell id="_TAWZ5lWANfYN2PFnZLe-46" value="Driver" style="rounded=1;whiteSpace=wrap;html=1;fillColor=#CCFFFF;" vertex="1" parent="_TAWZ5lWANfYN2PFnZLe-1">
          <mxGeometry x="105" y="465" width="90" height="30" as="geometry" />
        </mxCell>
        <mxCell id="_TAWZ5lWANfYN2PFnZLe-47" value="application" style="rounded=1;whiteSpace=wrap;html=1;fillColor=#CCFFFF;" vertex="1" parent="_TAWZ5lWANfYN2PFnZLe-1">
          <mxGeometry x="105" y="410" width="90" height="30" as="geometry" />
        </mxCell>
        <mxCell id="_TAWZ5lWANfYN2PFnZLe-49" style="edgeStyle=orthogonalEdgeStyle;rounded=0;orthogonalLoop=1;jettySize=auto;html=1;entryX=0;entryY=0.5;entryDx=0;entryDy=0;" edge="1" parent="_TAWZ5lWANfYN2PFnZLe-1" source="_TAWZ5lWANfYN2PFnZLe-51" target="_TAWZ5lWANfYN2PFnZLe-24">
          <mxGeometry relative="1" as="geometry" />
        </mxCell>
        <mxCell id="_TAWZ5lWANfYN2PFnZLe-50" style="edgeStyle=orthogonalEdgeStyle;rounded=0;orthogonalLoop=1;jettySize=auto;html=1;entryX=0.5;entryY=1;entryDx=0;entryDy=0;exitX=1;exitY=0.5;exitDx=0;exitDy=0;" edge="1" parent="_TAWZ5lWANfYN2PFnZLe-1" source="_TAWZ5lWANfYN2PFnZLe-51" target="_TAWZ5lWANfYN2PFnZLe-61">
          <mxGeometry relative="1" as="geometry">
            <Array as="points">
              <mxPoint x="250" y="570" />
              <mxPoint x="250" y="640" />
              <mxPoint x="-70" y="640" />
            </Array>
          </mxGeometry>
        </mxCell>
        <mxCell id="_TAWZ5lWANfYN2PFnZLe-51" value="pymongo-api" style="rounded=1;whiteSpace=wrap;html=1;" vertex="1" parent="_TAWZ5lWANfYN2PFnZLe-1">
          <mxGeometry x="90" y="520" width="120" height="100" as="geometry" />
        </mxCell>
        <mxCell id="_TAWZ5lWANfYN2PFnZLe-52" value="Driver" style="rounded=1;whiteSpace=wrap;html=1;fillColor=#CCFFFF;" vertex="1" parent="_TAWZ5lWANfYN2PFnZLe-1">
          <mxGeometry x="105" y="585" width="90" height="30" as="geometry" />
        </mxCell>
        <mxCell id="_TAWZ5lWANfYN2PFnZLe-53" value="application" style="rounded=1;whiteSpace=wrap;html=1;fillColor=#CCFFFF;" vertex="1" parent="_TAWZ5lWANfYN2PFnZLe-1">
          <mxGeometry x="105" y="530" width="90" height="30" as="geometry" />
        </mxCell>
        <mxCell id="_TAWZ5lWANfYN2PFnZLe-54" style="edgeStyle=orthogonalEdgeStyle;rounded=0;orthogonalLoop=1;jettySize=auto;html=1;entryX=0;entryY=0.5;entryDx=0;entryDy=0;" edge="1" parent="_TAWZ5lWANfYN2PFnZLe-1" source="_TAWZ5lWANfYN2PFnZLe-58" target="_TAWZ5lWANfYN2PFnZLe-8">
          <mxGeometry relative="1" as="geometry" />
        </mxCell>
        <mxCell id="_TAWZ5lWANfYN2PFnZLe-55" style="edgeStyle=orthogonalEdgeStyle;rounded=0;orthogonalLoop=1;jettySize=auto;html=1;entryX=0;entryY=0.5;entryDx=0;entryDy=0;" edge="1" parent="_TAWZ5lWANfYN2PFnZLe-1" source="_TAWZ5lWANfYN2PFnZLe-58" target="_TAWZ5lWANfYN2PFnZLe-45">
          <mxGeometry relative="1" as="geometry" />
        </mxCell>
        <mxCell id="_TAWZ5lWANfYN2PFnZLe-56" style="edgeStyle=orthogonalEdgeStyle;rounded=0;orthogonalLoop=1;jettySize=auto;html=1;entryX=0;entryY=0.5;entryDx=0;entryDy=0;" edge="1" parent="_TAWZ5lWANfYN2PFnZLe-1" source="_TAWZ5lWANfYN2PFnZLe-58" target="_TAWZ5lWANfYN2PFnZLe-51">
          <mxGeometry relative="1" as="geometry" />
        </mxCell>
        <mxCell id="_TAWZ5lWANfYN2PFnZLe-57" style="edgeStyle=orthogonalEdgeStyle;rounded=0;orthogonalLoop=1;jettySize=auto;html=1;entryX=0;entryY=0.5;entryDx=0;entryDy=0;" edge="1" parent="_TAWZ5lWANfYN2PFnZLe-1" source="_TAWZ5lWANfYN2PFnZLe-58" target="_TAWZ5lWANfYN2PFnZLe-29">
          <mxGeometry relative="1" as="geometry" />
        </mxCell>
        <mxCell id="cdsGyjE3XBB2LcRHJZ7T-1" style="edgeStyle=orthogonalEdgeStyle;rounded=0;orthogonalLoop=1;jettySize=auto;html=1;entryX=1;entryY=0.5;entryDx=0;entryDy=0;exitX=1;exitY=0.25;exitDx=0;exitDy=0;" edge="1" parent="_TAWZ5lWANfYN2PFnZLe-1" source="_TAWZ5lWANfYN2PFnZLe-8" target="cdsGyjE3XBB2LcRHJZ7T-0">
          <mxGeometry relative="1" as="geometry">
            <Array as="points">
              <mxPoint x="250" y="305" />
              <mxPoint x="250" y="260" />
            </Array>
          </mxGeometry>
        </mxCell>
        <mxCell id="cdsGyjE3XBB2LcRHJZ7T-7" style="edgeStyle=orthogonalEdgeStyle;rounded=0;orthogonalLoop=1;jettySize=auto;html=1;exitX=1;exitY=0.25;exitDx=0;exitDy=0;entryX=1;entryY=0.5;entryDx=0;entryDy=0;" edge="1" parent="_TAWZ5lWANfYN2PFnZLe-1" source="_TAWZ5lWANfYN2PFnZLe-8" target="cdsGyjE3XBB2LcRHJZ7T-6">
          <mxGeometry relative="1" as="geometry">
            <mxPoint x="-140" y="240" as="targetPoint" />
            <Array as="points">
              <mxPoint x="250" y="305" />
              <mxPoint x="250" y="220" />
              <mxPoint x="-140" y="220" />
              <mxPoint x="-140" y="210" />
            </Array>
          </mxGeometry>
        </mxCell>
        <mxCell id="_TAWZ5lWANfYN2PFnZLe-58" value="APISIX Gateway" style="rounded=1;whiteSpace=wrap;html=1;" vertex="1" parent="_TAWZ5lWANfYN2PFnZLe-1">
          <mxGeometry x="-120" y="400" width="120" height="100" as="geometry" />
        </mxCell>
        <mxCell id="_TAWZ5lWANfYN2PFnZLe-59" style="edgeStyle=orthogonalEdgeStyle;rounded=0;orthogonalLoop=1;jettySize=auto;html=1;entryX=0.5;entryY=0;entryDx=0;entryDy=0;" edge="1" parent="_TAWZ5lWANfYN2PFnZLe-1" source="_TAWZ5lWANfYN2PFnZLe-60" target="_TAWZ5lWANfYN2PFnZLe-61">
          <mxGeometry relative="1" as="geometry" />
        </mxCell>
        <mxCell id="_TAWZ5lWANfYN2PFnZLe-60" value="consul_kv" style="rounded=1;whiteSpace=wrap;html=1;fillColor=#CCFFFF;" vertex="1" parent="_TAWZ5lWANfYN2PFnZLe-1">
          <mxGeometry x="-105" y="465" width="90" height="30" as="geometry" />
        </mxCell>
        <mxCell id="_TAWZ5lWANfYN2PFnZLe-61" value="Consul" style="rounded=1;whiteSpace=wrap;html=1;" vertex="1" parent="_TAWZ5lWANfYN2PFnZLe-1">
          <mxGeometry x="-130" y="580" width="120" height="40" as="geometry" />
        </mxCell>
        <mxCell id="_TAWZ5lWANfYN2PFnZLe-62" value="Получить список сервисов" style="text;strokeColor=none;align=center;fillColor=#FFFFFF;html=1;verticalAlign=middle;whiteSpace=wrap;rounded=0;" vertex="1" parent="_TAWZ5lWANfYN2PFnZLe-1">
          <mxGeometry x="-112.5" y="520" width="105" height="30" as="geometry" />
        </mxCell>
        <mxCell id="_TAWZ5lWANfYN2PFnZLe-63" value="Регистрация" style="text;strokeColor=none;align=center;fillColor=#FFFFFF;html=1;verticalAlign=middle;whiteSpace=wrap;rounded=0;" vertex="1" parent="_TAWZ5lWANfYN2PFnZLe-1">
          <mxGeometry x="-35" y="630" width="105" height="30" as="geometry" />
        </mxCell>
        <mxCell id="cdsGyjE3XBB2LcRHJZ7T-0" value="CDN&lt;br&gt;region-1" style="rounded=1;whiteSpace=wrap;html=1;" vertex="1" parent="_TAWZ5lWANfYN2PFnZLe-1">
          <mxGeometry x="-300" y="240" width="120" height="40" as="geometry" />
        </mxCell>
        <mxCell id="cdsGyjE3XBB2LcRHJZ7T-2" style="edgeStyle=orthogonalEdgeStyle;rounded=0;orthogonalLoop=1;jettySize=auto;html=1;entryX=0.5;entryY=0;entryDx=0;entryDy=0;entryPerimeter=0;" edge="1" parent="_TAWZ5lWANfYN2PFnZLe-1" source="cdsGyjE3XBB2LcRHJZ7T-0" target="_TAWZ5lWANfYN2PFnZLe-42">
          <mxGeometry relative="1" as="geometry" />
        </mxCell>
        <mxCell id="cdsGyjE3XBB2LcRHJZ7T-5" value="" style="edgeStyle=orthogonalEdgeStyle;rounded=0;orthogonalLoop=1;jettySize=auto;html=1;" edge="1" parent="_TAWZ5lWANfYN2PFnZLe-1" source="cdsGyjE3XBB2LcRHJZ7T-3">
          <mxGeometry relative="1" as="geometry">
            <mxPoint x="-121" y="446" as="targetPoint" />
          </mxGeometry>
        </mxCell>
        <mxCell id="cdsGyjE3XBB2LcRHJZ7T-3" value="Frontend" style="rounded=1;whiteSpace=wrap;html=1;" vertex="1" parent="_TAWZ5lWANfYN2PFnZLe-1">
          <mxGeometry x="-280" y="426" width="120" height="40" as="geometry" />
        </mxCell>
        <mxCell id="cdsGyjE3XBB2LcRHJZ7T-6" value="CDN&lt;br&gt;region-2" style="rounded=1;whiteSpace=wrap;html=1;" vertex="1" parent="_TAWZ5lWANfYN2PFnZLe-1">
          <mxGeometry x="-300" y="190" width="120" height="40" as="geometry" />
        </mxCell>
        <mxCell id="cdsGyjE3XBB2LcRHJZ7T-8" value="" style="endArrow=classic;startArrow=classic;html=1;rounded=0;entryX=0;entryY=0.5;entryDx=0;entryDy=0;" edge="1" parent="_TAWZ5lWANfYN2PFnZLe-1" source="_TAWZ5lWANfYN2PFnZLe-42" target="cdsGyjE3XBB2LcRHJZ7T-3">
          <mxGeometry width="50" height="50" relative="1" as="geometry">
            <mxPoint x="-160" y="410" as="sourcePoint" />
            <mxPoint x="-110" y="360" as="targetPoint" />
          </mxGeometry>
        </mxCell>
        <mxCell id="cdsGyjE3XBB2LcRHJZ7T-9" value="Сохранить контент" style="text;strokeColor=none;align=center;fillColor=#FFFFFF;html=1;verticalAlign=middle;whiteSpace=wrap;rounded=0;" vertex="1" parent="_TAWZ5lWANfYN2PFnZLe-1">
          <mxGeometry x="-122.5" y="210" width="105" height="70" as="geometry" />
        </mxCell>
      </root>
    </mxGraphModel>
  </diagram>
</mxfile>
